<!DOCTYPE svg PUBLIC "-//W3C//DTD SVG 1.1//EN" "http://www.w3.org/Graphics/SVG/1.1/DTD/svg11.dtd">

<!-- Uploaded to: SVG Repo, www.svgrepo.com, Transformed by: SVG Repo Mixer Tools -->
<svg fill="#000000" version="1.1" id="Capa_1" xmlns="http://www.w3.org/2000/svg" xmlns:xlink="http://www.w3.org/1999/xlink" width="64px" height="64px" viewBox="-26.75 -26.75 499.37 499.37" xml:space="preserve" transform="matrix(1, 0, 0, 1, 0, 0)rotate(90)" stroke="#000000" stroke-width="23.631269">

<g id="SVGRepo_bgCarrier" stroke-width="0"/>

<g id="SVGRepo_tracerCarrier" stroke-linecap="round" stroke-linejoin="round" stroke="#CCCCCC" stroke-width="22.29365"> <g> <g> <path d="M222.937,445.872C100.007,445.872,0,345.862,0,222.936C0,100.007,100.007,0,222.937,0 c122.926,0,222.936,100.007,222.936,222.936C445.873,345.862,345.863,445.872,222.937,445.872z M222.937,18.157 c-112.911,0-204.779,91.868-204.779,204.779c0,112.914,91.868,204.779,204.779,204.779c112.913,0,204.778-91.865,204.778-204.779 C427.715,110.025,335.85,18.157,222.937,18.157z"/> </g> </g> </g>

<g id="SVGRepo_iconCarrier"> <g> <g> <path d="M222.937,445.872C100.007,445.872,0,345.862,0,222.936C0,100.007,100.007,0,222.937,0 c122.926,0,222.936,100.007,222.936,222.936C445.873,345.862,345.863,445.872,222.937,445.872z M222.937,18.157 c-112.911,0-204.779,91.868-204.779,204.779c0,112.914,91.868,204.779,204.779,204.779c112.913,0,204.778-91.865,204.778-204.779 C427.715,110.025,335.85,18.157,222.937,18.157z"/> </g> </g> </g>

</svg>