<svg class="svg-icon" style="width: 1em;height: 1em;vertical-align: middle;fill: currentColor;overflow: hidden;" viewBox="0 0 1024 1024" version="1.1" xmlns="http://www.w3.org/2000/svg"><path d="M512.736 420.896a256 256 0 0 1 256 256h-512a256 256 0 0 1 256-256z" fill="#FFFFFF" /><path d="M512 416a256 256 0 0 1 254.016 288.032H257.984A256 256 0 0 1 512 416z m0 32a224 224 0 0 0-223.872 216.32L288 672h448a223.968 223.968 0 0 0-216.256-223.872L512 448z m-387.328-23.04l2.624 1.216 83.136 48a16 16 0 0 1-13.376 28.928l-2.624-1.216-83.136-48a16 16 0 0 1 13.376-28.928z m798.144 7.04a16 16 0 0 1-3.52 20.224l-2.336 1.664-83.136 48a16 16 0 0 1-18.368-26.048l2.368-1.664 83.136-48a16 16 0 0 1 21.856 5.856z m-569.6-195.904l1.376 2.56 37.504 88.32a16 16 0 0 1-28.096 15.072l-1.376-2.56-37.504-88.32a16 16 0 0 1 28.096-15.072z m341.44-5.92a16 16 0 0 1 9.376 18.24l-0.896 2.72-37.504 88.384a16 16 0 0 1-30.336-9.76l0.864-2.752 37.504-88.384a16 16 0 0 1 20.992-8.448z" fill="#5D6D7E" /><path d="M912 671.04a16 16 0 0 1 2.88 31.744l-2.88 0.256H112.736a16 16 0 0 1-2.88-31.744l2.88-0.256H912z" fill="#5D6D7E" /></svg>